<svg width="45" height="44" viewBox="0 0 45 44" fill="none" xmlns="http://www.w3.org/2000/svg">
<rect width="45" height="44" fill="#E5E5E5"/>
<g clip-path="url(#clip0_0_1)">
<rect x="-895" y="-31" width="1440" height="112" fill="#355EAE"/>
<path d="M-522 2.99414H-2.49213L8.12231 20.2074L-14.2859 38.9855H-522V2.99414Z" fill="#F0EEEE"/>
<g filter="url(#filter0_d_0_1)">
<path d="M-6.905 10.2736C-8.53014 8.47255 -8.39075 5.59084 -6.905 4.51023C-4.52777 2.7812 -0.961683 3.7898 0.524204 4.51023C6.71513 7.512 18.8741 14.8844 17.9826 20.3596C17.0911 25.8349 -3.68563 34.8882 -13.9626 38.7305C-15.4483 39.286 -18.6428 40.4595 -18.0485 37.2896C-17.4542 34.1197 -11.3624 29.7252 -8.76219 28.2843L0.524204 23.2413C1.63858 22.5209 3.42308 21.4402 3.42308 19.9994C3.42308 18.1983 1.01947 16.5173 -0.218716 15.6768C-1.58075 14.8363 -4.82485 12.579 -6.905 10.2736Z" fill="#F26D1E"/>
<path d="M-6.905 10.2736C-8.53014 8.47255 -8.39075 5.59084 -6.905 4.51023C-4.52777 2.7812 -0.961683 3.7898 0.524204 4.51023C6.71513 7.512 18.8741 14.8844 17.9826 20.3596C17.0911 25.8349 -3.68563 34.8882 -13.9626 38.7305C-15.4483 39.286 -18.6428 40.4595 -18.0485 37.2896C-17.4542 34.1197 -11.3624 29.7252 -8.76219 28.2843L0.524204 23.2413C1.63858 22.5209 3.42308 21.4402 3.42308 19.9994C3.42308 18.1983 1.01947 16.5173 -0.218716 15.6768C-1.58075 14.8363 -4.82485 12.579 -6.905 10.2736Z" stroke="#F0EEEE" stroke-width="4.49892"/>
</g>
<path d="M-6.905 10.2736C-8.53014 8.47255 -8.39075 5.59084 -6.905 4.51023C-4.52777 2.7812 -0.961683 3.7898 0.524204 4.51023C6.71513 7.512 18.8741 14.8844 17.9826 20.3596C17.0911 25.8349 -3.68563 34.8882 -13.9626 38.7305C-15.4483 39.286 -18.6428 40.4595 -18.0485 37.2896C-17.4542 34.1197 -11.3624 29.7252 -8.76219 28.2843L0.524204 23.2413C1.63858 22.5209 3.42308 21.4402 3.42308 19.9994C3.42308 18.1983 1.01947 16.5173 -0.218716 15.6768C-1.58075 14.8363 -4.82485 12.579 -6.905 10.2736Z" fill="#F26D1E"/>
<g filter="url(#filter1_f_0_1)">
<path d="M10.8507 24.3217C4.69335 26.8609 -2.50609 29.2569 -3.76941 27.9132C-5.03274 26.5694 5.27893 23.9615 5.27893 19.9991C5.27893 17.8378 2.98988 15.9783 1.93583 14.9561C-0.664441 12.4346 -2.52164 11.354 -4.37893 9.19271C-7.2269 5.87861 -4.77588 4.8702 -0.664441 6.67128C2.8698 8.2195 10.7721 12.4346 14.9112 17.1174C17.14 19.6389 16.3626 22.0487 10.8507 24.3217Z" fill="#F4901A" fill-opacity="0.8"/>
</g>
<g filter="url(#filter2_d_0_1)">
<path d="M15.3808 10.2732C13.7556 8.47206 13.895 5.59036 15.3808 4.50974C17.758 2.78071 21.3241 3.78931 22.81 4.50974C29.0009 7.51152 41.1599 14.8839 40.2684 20.3591C39.3769 25.8344 18.6001 34.8877 8.3232 38.73C6.83744 39.2855 3.64293 40.459 4.23726 37.2891C4.83159 34.1193 10.9234 29.7247 13.5236 28.2838L22.81 23.2408C23.9243 22.5204 25.7088 21.4397 25.7088 19.9989C25.7088 18.1978 23.3052 16.5169 22.0671 15.6764C20.705 14.8359 17.4609 12.5785 15.3808 10.2732Z" fill="#F26D1E"/>
<path d="M15.3808 10.2732C13.7556 8.47206 13.895 5.59036 15.3808 4.50974C17.758 2.78071 21.3241 3.78931 22.81 4.50974C29.0009 7.51152 41.1599 14.8839 40.2684 20.3591C39.3769 25.8344 18.6001 34.8877 8.3232 38.73C6.83744 39.2855 3.64293 40.459 4.23726 37.2891C4.83159 34.1193 10.9234 29.7247 13.5236 28.2838L22.81 23.2408C23.9243 22.5204 25.7088 21.4397 25.7088 19.9989C25.7088 18.1978 23.3052 16.5169 22.0671 15.6764C20.705 14.8359 17.4609 12.5785 15.3808 10.2732Z" stroke="#F0EEEE" stroke-width="4.49892"/>
</g>
<path d="M23.4718 21.4642L20.96 22.8282C19.5027 23.6197 17.8908 22.0688 18.6254 20.582C18.8735 20.0797 18.8582 19.4874 18.5844 18.9986L17.2214 16.5658C16.9374 16.0588 16.5812 15.5959 16.1641 15.1913L14.1929 13.2798L11.3126 10.8857C10.6711 10.3525 11.146 9.31388 11.9688 9.45014C11.9853 9.45287 12.0009 9.45592 12.0172 9.45954C12.1708 9.49373 13.0471 9.68315 13.8236 9.73571C14.0627 9.7519 14.2956 9.82907 14.4848 9.9761C14.5378 10.0172 14.5867 10.0632 14.6311 10.1134L16.4421 12.1623C16.6757 12.4265 16.932 12.6696 17.2083 12.8888L20.8791 15.8013L23.8649 18.8537C24.3969 19.3975 24.4894 20.234 24.0891 20.8809C23.9376 21.1257 23.7248 21.3268 23.4718 21.4642Z" fill="#F0EEEE"/>
<path d="M15.3808 10.2732C13.7556 8.47206 13.895 5.59036 15.3808 4.50974C17.758 2.78071 21.3241 3.78931 22.81 4.50974C29.0009 7.51152 41.1599 14.8839 40.2684 20.3591C39.3769 25.8344 18.6001 34.8877 8.3232 38.73C6.83744 39.2855 3.64293 40.459 4.23726 37.2891C4.83159 34.1193 10.9234 29.7247 13.5236 28.2838L22.81 23.2408C23.9243 22.5204 25.7088 21.4397 25.7088 19.9989C25.7088 18.1978 23.3052 16.5169 22.0671 15.6764C20.705 14.8359 17.4609 12.5785 15.3808 10.2732Z" fill="#F26D1E"/>
<path d="M11.6907 27.1554L17.5008 22.9296C18.1214 22.4783 18.9919 22.9216 18.9919 23.6889C18.9919 24.0104 18.8273 24.3096 18.5558 24.4818L11.0823 29.2204L6.82329 31.8755L5.65766 32.8174C5.28112 33.1217 4.73669 33.0971 4.38914 32.7601C3.93216 32.3169 4.02674 31.5595 4.57866 31.2424L11.6907 27.1554Z" fill="#F0EEEE"/>
<g filter="url(#filter3_f_0_1)">
<path d="M33.1404 24.3211C27.5686 26.8603 19.8056 29.2564 18.7876 27.9126C17.7695 26.5688 27.5686 23.9609 27.5686 19.9985C27.5686 17.8372 25.2796 15.9777 24.2255 14.9555C21.6252 12.4339 19.768 11.3534 17.9107 9.1921C15.0628 5.87799 17.5138 4.86959 21.6252 6.67067C25.1595 8.21889 33.0618 12.434 37.2009 17.1168C39.4296 19.6383 38.5612 21.8507 33.1404 24.3211Z" fill="#F4901A" fill-opacity="0.8"/>
</g>
</g>
<defs>
<filter id="filter0_d_0_1" x="-21.8699" y="0.556577" width="43.6487" height="43.3512" filterUnits="userSpaceOnUse" color-interpolation-filters="sRGB">
<feFlood flood-opacity="0" result="BackgroundImageFix"/>
<feColorMatrix in="SourceAlpha" type="matrix" values="0 0 0 0 0 0 0 0 0 0 0 0 0 0 0 0 0 0 127 0" result="hardAlpha"/>
<feOffset dy="0.749819"/>
<feGaussianBlur stdDeviation="0.749819"/>
<feColorMatrix type="matrix" values="0 0 0 0 0 0 0 0 0 0 0 0 0 0 0 0 0 0 0.25 0"/>
<feBlend mode="normal" in2="BackgroundImageFix" result="effect1_dropShadow_0_1"/>
<feBlend mode="normal" in="SourceGraphic" in2="effect1_dropShadow_0_1" result="shape"/>
</filter>
<filter id="filter1_f_0_1" x="-6.35944" y="5.03814" width="23.1834" height="24.0111" filterUnits="userSpaceOnUse" color-interpolation-filters="sRGB">
<feFlood flood-opacity="0" result="BackgroundImageFix"/>
<feBlend mode="normal" in="SourceGraphic" in2="BackgroundImageFix" result="shape"/>
<feGaussianBlur stdDeviation="0.37491" result="effect1_foregroundBlur_0_1"/>
</filter>
<filter id="filter2_d_0_1" x="0.415889" y="0.556089" width="43.6487" height="43.3512" filterUnits="userSpaceOnUse" color-interpolation-filters="sRGB">
<feFlood flood-opacity="0" result="BackgroundImageFix"/>
<feColorMatrix in="SourceAlpha" type="matrix" values="0 0 0 0 0 0 0 0 0 0 0 0 0 0 0 0 0 0 127 0" result="hardAlpha"/>
<feOffset dy="0.749819"/>
<feGaussianBlur stdDeviation="0.749819"/>
<feColorMatrix type="matrix" values="0 0 0 0 0 0 0 0 0 0 0 0 0 0 0 0 0 0 0.25 0"/>
<feBlend mode="normal" in2="BackgroundImageFix" result="effect1_dropShadow_0_1"/>
<feBlend mode="normal" in="SourceGraphic" in2="effect1_dropShadow_0_1" result="shape"/>
</filter>
<filter id="filter3_f_0_1" x="15.9302" y="5.03753" width="23.163" height="24.0111" filterUnits="userSpaceOnUse" color-interpolation-filters="sRGB">
<feFlood flood-opacity="0" result="BackgroundImageFix"/>
<feBlend mode="normal" in="SourceGraphic" in2="BackgroundImageFix" result="shape"/>
<feGaussianBlur stdDeviation="0.37491" result="effect1_foregroundBlur_0_1"/>
</filter>
<clipPath id="clip0_0_1">
<rect width="1440" height="140" fill="white" transform="translate(-895 -31)"/>
</clipPath>
</defs>
</svg>
